# xmcd
#
# Track frame offsets:
#	225
#	18418
#	33509
#	48061
#	59741
#	80506
#	94979
#	109452
#	126687
#	137152
#	152891
#	170203
#	185867
#	209070
#
# Disc length: 2942 seconds
#
# Revision: 1
# Processed by: cddbd v1.5PL3 Copyright (c) Steve Scherf et al.
# Submitted via: audiograbber 1.82.01
#
DISCID=e10b7b0e
DTITLE=Jonny Hill - Gänsehaut Balladen [CD 1)
DYEAR=1900
DGENRE=
TTITLE0=Bis der letzte Fluss versiegt
TTITLE1=Dieser Weg führt nach Haus
TTITLE2=Wenn ich Dich verliere
TTITLE3=Ich komm nicht los von Dir
TTITLE4=Bobby
TTITLE5=In dem kleinen Haus am See
TTITLE6=Ich muss Dich vergessen
TTITLE7=Ein Sturm zieht auf
TTITLE8=Glücklich sein mit Dir allein
TTITLE9=War's das schon
TTITLE10=Damals war sie noch schön
TTITLE11=Mein Leben mit Dir
TTITLE12=Tommy und Strolch
TTITLE13=Allzeit gute Fahrt
EXTD=
EXTT0=
EXTT1=
EXTT2=
EXTT3=
EXTT4=
EXTT5=
EXTT6=
EXTT7=
EXTT8=
EXTT9=
EXTT10=
EXTT11=
EXTT12=
EXTT13=
PLAYORDER=
